<?xml version="1.0" encoding="UTF-8" standalone="no"?>
<!-- Created with Inkscape (http://www.inkscape.org/) -->

<svg
   width="32"
   height="32"
   viewBox="0 0 8.4666667 8.4666667"
   version="1.1"
   id="svg1"
   xml:space="preserve"
   inkscape:version="1.3.2 (091e20e, 2023-11-25, custom)"
   sodipodi:docname="barbordsboj.svg"
   inkscape:export-filename="..\png\ostprick.png"
   inkscape:export-xdpi="96"
   inkscape:export-ydpi="96"
   xmlns:inkscape="http://www.inkscape.org/namespaces/inkscape"
   xmlns:sodipodi="http://sodipodi.sourceforge.net/DTD/sodipodi-0.dtd"
   xmlns="http://www.w3.org/2000/svg"
   xmlns:svg="http://www.w3.org/2000/svg"><sodipodi:namedview
     id="namedview1"
     pagecolor="#ffffff"
     bordercolor="#000000"
     borderopacity="0.25"
     inkscape:showpageshadow="2"
     inkscape:pageopacity="0.0"
     inkscape:pagecheckerboard="0"
     inkscape:deskcolor="#d1d1d1"
     inkscape:document-units="mm"
     inkscape:zoom="22.627417"
     inkscape:cx="15.313281"
     inkscape:cy="15.180699"
     inkscape:window-width="1920"
     inkscape:window-height="1129"
     inkscape:window-x="-8"
     inkscape:window-y="-8"
     inkscape:window-maximized="1"
     inkscape:current-layer="layer1" /><defs
     id="defs1" /><g
     inkscape:label="Layer 1"
     inkscape:groupmode="layer"
     id="layer1"><path
       id="path2"
       style="fill:#000000;fill-opacity:1;stroke:none;stroke-width:0.359244;stroke-dasharray:none;stroke-opacity:1"
       d="M 4.2333333 7.4083333 A 0.52916664 0.52916688 0 0 0 3.7041667 7.9375 A 0.52916664 0.52916688 0 0 0 4.2333333 8.4666667 A 0.52916664 0.52916688 0 0 0 4.7625 7.9375 A 0.52916664 0.52916688 0 0 0 4.2333333 7.4083333 z M 4.2333333 7.6729167 A 0.26458332 0.26458332 0 0 1 4.4979167 7.9375 A 0.26458332 0.26458332 0 0 1 4.2333333 8.2020833 A 0.26458332 0.26458332 0 0 1 3.96875 7.9375 A 0.26458332 0.26458332 0 0 1 4.2333333 7.6729167 z " /><rect
       style="fill:#000000;fill-opacity:1;stroke:none;stroke-width:0.217588;stroke-dasharray:none;stroke-opacity:0.451389"
       id="rect2"
       width="1.0583333"
       height="0.26458332"
       x="2.778125"
       y="7.8052082" /><rect
       style="fill:#000000;fill-opacity:1;stroke:none;stroke-width:0.337904;stroke-dasharray:none;stroke-opacity:0.451389"
       id="rect3"
       width="0.26458332"
       height="5.2916665"
       x="4.1010418"
       y="2.2489583" /><rect
       style="fill:#000000;fill-opacity:1;stroke:none;stroke-width:0.217588;stroke-dasharray:none;stroke-opacity:0.451389"
       id="rect2-8"
       width="1.0583333"
       height="0.26458332"
       x="4.6302085"
       y="7.8052082" /><rect
       style="fill:none;fill-opacity:1;stroke:#000000;stroke-width:0.264583;stroke-dasharray:none;stroke-opacity:1"
       id="rect4"
       width="1.3229166"
       height="1.5875"
       x="3.5718751"
       y="0.66145813" /><g
       id="g4"><path
         id="rect1"
         style="fill:#000000;fill-opacity:1;stroke:none;stroke-width:0.255185"
         d="M 3.7041667,4.4979167 V 7.8052083 H 4.0049235 A 0.26458332,0.26458332 0 0 1 4.2333333,7.6729167 0.26458332,0.26458332 0 0 1 4.4622599,7.8052083 H 4.7625 V 4.4979167 Z" /><path
         style="fill:#000000;fill-opacity:1;stroke:none;stroke-width:0.264583"
         d="M 2.9104167,7.8052082 H 3.7041669 V 5.55625 Z"
         id="path4"
         sodipodi:nodetypes="cccc" /><path
         style="fill:#000000;fill-opacity:1;stroke:none;stroke-width:0.264583"
         d="M 5.5562504,7.8052082 H 4.7625002 V 5.55625 Z"
         id="path4-1"
         sodipodi:nodetypes="cccc" /></g></g></svg>
