<?xml version="1.0" encoding="UTF-8" standalone="no"?>
<!DOCTYPE svg PUBLIC "-//W3C//DTD SVG 1.1//EN" "http://www.w3.org/Graphics/SVG/1.1/DTD/svg11.dtd">
<svg width="100%" height="100%" viewBox="0 0 33 33" version="1.1" xmlns="http://www.w3.org/2000/svg" xmlns:xlink="http://www.w3.org/1999/xlink" xml:space="preserve" xmlns:serif="http://www.serif.com/" style="fill-rule:evenodd;clip-rule:evenodd;stroke-linejoin:round;stroke-miterlimit:2;">
    <g transform="matrix(1,0,0,1,-1258,-40)">
        <g transform="matrix(1,0,0,1,0,-24.2585)">
            <g id="gult_ljus" transform="matrix(1,0,0,1,1258.62,64.2941)">
                <rect x="0" y="0" width="32" height="32" style="fill:none;"/>
                <clipPath id="_clip1">
                    <rect x="0" y="0" width="32" height="32"/>
                </clipPath>
                <g clip-path="url(#_clip1)">
                    <g transform="matrix(-1.43845e-16,2.34917,2.34917,1.43845e-16,21.3267,26.6721)">
                        <path d="M-8.22,-4.535C-9.472,-4.535 -10.488,-3.519 -10.488,-2.267C-10.488,-1.014 -9.472,0 -8.22,0C-6.968,0 -1.239,-1.441 2.268,-2.267C-1.051,-3.035 -6.968,-4.535 -8.22,-4.535Z" style="fill:rgb(251,238,40);fill-rule:nonzero;"/>
                        <path d="M-8.22,-4.535C-9.472,-4.535 -10.488,-3.519 -10.488,-2.267C-10.488,-1.014 -9.472,0 -8.22,0C-6.968,0 -1.239,-1.441 2.268,-2.267C-1.051,-3.035 -6.968,-4.535 -8.22,-4.535ZM-8.22,-4.322C-7.078,-4.322 -2.037,-3.064 1.341,-2.266C-2.157,-1.43 -7.074,-0.213 -8.22,-0.213C-9.354,-0.213 -10.275,-1.132 -10.275,-2.267C-10.275,-3.402 -9.355,-4.322 -8.22,-4.322Z"/>
                    </g>
                </g>
            </g>
        </g>
    </g>
</svg>
