<?xml version="1.0" encoding="UTF-8" standalone="no"?>
<!DOCTYPE svg PUBLIC "-//W3C//DTD SVG 1.1//EN" "http://www.w3.org/Graphics/SVG/1.1/DTD/svg11.dtd">
<svg width="100%" height="100%" viewBox="0 0 33 32" version="1.1" xmlns="http://www.w3.org/2000/svg" xmlns:xlink="http://www.w3.org/1999/xlink" xml:space="preserve" xmlns:serif="http://www.serif.com/" style="fill-rule:evenodd;clip-rule:evenodd;stroke-linejoin:round;stroke-miterlimit:2;">
    <g transform="matrix(1,0,0,1,-1082,0)">
        <g transform="matrix(1,0,0,1,0,-24.2585)">
            <g id="kummel_oldschool" transform="matrix(1,0,0,1,1082.82,24.2585)">
                <rect x="0" y="0" width="32" height="32" style="fill:none;"/>
                <clipPath id="_clip1">
                    <rect x="0" y="0" width="32" height="32"/>
                </clipPath>
                <g clip-path="url(#_clip1)">
                    <g transform="matrix(0.589253,0,0,0.589253,6.59879,15.9829)">
                        <g transform="matrix(4.16654,-0.0320503,-0.0320503,-4.16654,16.0953,17.9898)">
                            <path d="M0.002,-0.536C-0.155,-1.059 -0.649,-1.44 -1.23,-1.436C-1.935,-1.43 -2.502,-0.861 -2.497,-0.167C-2.491,0.528 -1.916,1.089 -1.211,1.083C-1.141,1.083 -1.073,1.077 -1.006,1.065C-1.178,1.256 -1.299,1.47 -1.295,1.738C-1.289,2.442 -0.715,3.007 -0.01,3.001C0.695,2.996 1.268,2.474 1.255,1.716L1.255,1.715C1.247,1.446 1.117,1.233 0.942,1.041C1.036,1.062 1.135,1.073 1.236,1.072C1.938,1.067 2.503,0.496 2.497,-0.201C2.492,-0.898 1.918,-1.46 1.216,-1.455C0.638,-1.45 0.153,-1.062 0.002,-0.536ZM-0.858,0.733C-0.968,0.775 -1.088,0.799 -1.213,0.8C-1.761,0.804 -2.21,0.371 -2.214,-0.169C-2.218,-0.708 -1.776,-1.149 -1.228,-1.153C-1.205,-1.153 -1.182,-1.152 -1.159,-1.151C-0.744,-1.05 -0.521,-0.646 -0.517,-0.166C-0.515,0.223 -0.597,0.566 -0.858,0.733ZM0.39,2.637C0.267,2.689 0.131,2.717 -0.012,2.718C-0.561,2.723 -1.008,2.283 -1.012,1.735L-1.012,1.734C-1.015,1.579 -0.955,1.451 -0.867,1.336C-0.766,1.203 -0.629,1.086 -0.493,0.97C-0.311,0.814 -0.134,0.656 -0.016,0.473C0.308,0.907 0.707,1.217 0.712,1.804C0.715,2.179 0.623,2.485 0.39,2.637ZM1.323,0.785C1.293,0.787 1.264,0.789 1.234,0.789C0.688,0.793 0.242,0.358 0.237,-0.184C0.233,-0.725 0.673,-1.168 1.218,-1.172C1.243,-1.172 1.267,-1.171 1.291,-1.17C1.706,-1.068 1.928,-0.665 1.932,-0.185C1.936,0.297 1.739,0.686 1.323,0.785Z"/>
                        </g>
                        <g transform="matrix(4.16667,0,0,4.16667,-593.91,-1118.31)">
                            <rect x="146.234" y="273.065" width="0.329" height="0.4"/>
                        </g>
                    </g>
                    <g id="botten">
                        <g id="Bottom" transform="matrix(3.77953,0,0,3.77953,7.1811e-07,0)">
                            <path d="M4.233,7.408C3.943,7.408 3.704,7.647 3.704,7.938C3.704,8.228 3.943,8.467 4.233,8.467C4.524,8.467 4.762,8.228 4.763,7.937C4.762,7.865 4.748,7.796 4.721,7.733C4.698,7.68 4.591,7.686 4.553,7.644C4.5,7.582 4.509,7.479 4.432,7.448C4.371,7.422 4.304,7.408 4.233,7.408ZM4.233,7.673C4.378,7.673 4.498,7.792 4.498,7.938C4.498,8.083 4.378,8.202 4.233,8.202C4.088,8.202 3.969,8.083 3.969,7.938C3.969,7.792 4.088,7.673 4.233,7.673Z" style="fill-rule:nonzero;"/>
                        </g>
                        <g id="Botten" transform="matrix(0.376562,0,0,1,13.9142,3.40157e-07)">
                            <rect x="9.522" y="29.5" width="13.278" height="1"/>
                        </g>
                        <g id="Botten1" serif:id="Botten" transform="matrix(0.376562,0,0,1,5.91424,3.40157e-07)">
                            <rect x="9.522" y="29.5" width="13.278" height="1"/>
                        </g>
                    </g>
                </g>
            </g>
        </g>
    </g>
</svg>
