<?xml version="1.0" encoding="UTF-8" standalone="no"?>
<!DOCTYPE svg PUBLIC "-//W3C//DTD SVG 1.1//EN" "http://www.w3.org/Graphics/SVG/1.1/DTD/svg11.dtd">
<svg width="100%" height="100%" viewBox="0 0 33 33" version="1.1" xmlns="http://www.w3.org/2000/svg" xmlns:xlink="http://www.w3.org/1999/xlink" xml:space="preserve" xmlns:serif="http://www.serif.com/" style="fill-rule:evenodd;clip-rule:evenodd;stroke-linejoin:round;stroke-miterlimit:2;">
    <g transform="matrix(1,0,0,1,-1292,-185)">
        <g transform="matrix(1,0,0,1,0,-24.2585)">
            <g id="mittledsboj" transform="matrix(1,0,0,1,1292.82,210.044)">
                <rect x="0" y="0" width="32" height="32" style="fill:none;"/>
                <clipPath id="_clip1">
                    <rect x="0" y="0" width="32" height="32"/>
                </clipPath>
                <g clip-path="url(#_clip1)">
                    <g transform="matrix(0.891289,0.23882,-2.2154,8.268,-572.447,-1832.3)">
                        <path d="M1137.69,190.131L1138.78,190.131L1138.89,192.243L1137.81,192.244L1137.69,190.131Z"/>
                    </g>
                    <g transform="matrix(1.92197,-5.55112e-17,5.55112e-17,1.92197,11.274,13.7036)">
                        <path d="M0,8.478L2.047,5.792L4.043,0.028L5.211,0.341L4.359,6.031L4.691,8.479L3.192,8.479C3.192,8.479 3.127,7.821 2.504,7.776C1.832,7.729 1.77,8.478 1.77,8.478L0,8.478Z" style="fill-rule:nonzero;"/>
                    </g>
                    <g id="Botten">
                        <g id="Bottom" transform="matrix(3.77953,0,0,3.77953,7.1811e-07,0)">
                            <path d="M4.233,7.408C3.943,7.408 3.704,7.647 3.704,7.938C3.704,8.228 3.943,8.467 4.233,8.467C4.524,8.467 4.762,8.228 4.763,7.937C4.762,7.647 4.524,7.408 4.233,7.408ZM4.233,7.673C4.378,7.673 4.498,7.792 4.498,7.938C4.498,8.083 4.378,8.202 4.233,8.202C4.088,8.202 3.969,8.083 3.969,7.938C3.969,7.792 4.088,7.673 4.233,7.673Z" style="fill-rule:nonzero;"/>
                        </g>
                        <g id="Botten1" serif:id="Botten" transform="matrix(0.376562,0,0,1,13.9142,3.40157e-07)">
                            <rect x="9.522" y="29.5" width="13.278" height="1"/>
                        </g>
                        <g id="Botten2" serif:id="Botten" transform="matrix(0.376562,0,0,1,5.91424,3.40157e-07)">
                            <rect x="9.522" y="29.5" width="13.278" height="1"/>
                        </g>
                    </g>
                    <g transform="matrix(-0.54301,2.02654,2.02654,0.54301,23.3856,7.16313)">
                        <path d="M1.105,-2.151C0.27,-2.151 -0.409,-1.473 -0.409,-0.637C-0.409,0.198 0.27,0.877 1.105,0.877C1.941,0.877 2.619,0.198 2.619,-0.637C2.619,-1.473 1.941,-2.151 1.105,-2.151ZM1.105,-1.675C1.678,-1.675 2.143,-1.21 2.143,-0.637C2.143,-0.065 1.678,0.4 1.105,0.4C0.533,0.4 0.068,-0.065 0.068,-0.637C0.068,-1.21 0.533,-1.675 1.105,-1.675Z"/>
                    </g>
                </g>
            </g>
        </g>
    </g>
</svg>
