<?xml version="1.0" encoding="UTF-8" standalone="no"?>
<!-- Created with Inkscape (http://www.inkscape.org/) -->

<svg
   width="32"
   height="32"
   viewBox="0 0 8.4666667 8.4666667"
   version="1.1"
   id="svg1"
   xml:space="preserve"
   inkscape:version="1.3.2 (091e20e, 2023-11-25, custom)"
   sodipodi:docname="ostprick.svg"
   inkscape:export-filename="..\png\ostprick.png"
   inkscape:export-xdpi="96"
   inkscape:export-ydpi="96"
   xmlns:inkscape="http://www.inkscape.org/namespaces/inkscape"
   xmlns:sodipodi="http://sodipodi.sourceforge.net/DTD/sodipodi-0.dtd"
   xmlns="http://www.w3.org/2000/svg"
   xmlns:svg="http://www.w3.org/2000/svg"><sodipodi:namedview
     id="namedview1"
     pagecolor="#ffffff"
     bordercolor="#000000"
     borderopacity="0.25"
     inkscape:showpageshadow="2"
     inkscape:pageopacity="0.0"
     inkscape:pagecheckerboard="0"
     inkscape:deskcolor="#d1d1d1"
     inkscape:document-units="mm"
     inkscape:zoom="16"
     inkscape:cx="14.09375"
     inkscape:cy="15.15625"
     inkscape:window-width="1920"
     inkscape:window-height="1129"
     inkscape:window-x="-8"
     inkscape:window-y="-8"
     inkscape:window-maximized="1"
     inkscape:current-layer="layer1" /><defs
     id="defs1" /><g
     inkscape:label="Layer 1"
     inkscape:groupmode="layer"
     id="layer1"><path
       sodipodi:type="star"
       style="fill:#000000;fill-opacity:1;stroke:none;stroke-width:0.799999;stroke-dasharray:none;stroke-opacity:0.451389"
       id="path3-0"
       inkscape:flatsided="true"
       sodipodi:sides="3"
       sodipodi:cx="1.1785113"
       sodipodi:cy="5.1854496"
       sodipodi:r1="2.7952404"
       sodipodi:r2="1.3976201"
       sodipodi:arg1="0.52359878"
       sodipodi:arg2="1.5707963"
       inkscape:rounded="0.01"
       inkscape:randomized="0"
       d="m 3.5992605,6.5830698 c -0.024208,0.041929 -4.817291,0.041929 -4.8414984,0 -0.024208,-0.041929 2.3723342,-4.1928606 2.4207492,-4.1928606 0.048415,0 2.4449566,4.150932 2.4207492,4.1928606 z"
       inkscape:transform-center-y="0.10849892"
       transform="matrix(-0.32786968,0,0,-0.37580128,4.6197314,4.9992853)" /><path
       id="path2"
       style="fill:#000000;fill-opacity:1;stroke:none;stroke-width:0.359244;stroke-dasharray:none;stroke-opacity:1"
       d="M 4.2333333 7.4083333 A 0.52916664 0.52916688 0 0 0 3.7041667 7.9375 A 0.52916664 0.52916688 0 0 0 4.2333333 8.4666667 A 0.52916664 0.52916688 0 0 0 4.7625 7.9375 A 0.52916664 0.52916688 0 0 0 4.2333333 7.4083333 z M 4.2333333 7.6729167 A 0.26458332 0.26458332 0 0 1 4.4979167 7.9375 A 0.26458332 0.26458332 0 0 1 4.2333333 8.2020833 A 0.26458332 0.26458332 0 0 1 3.96875 7.9375 A 0.26458332 0.26458332 0 0 1 4.2333333 7.6729167 z " /><rect
       style="fill:#000000;fill-opacity:1;stroke:none;stroke-width:0.217588;stroke-dasharray:none;stroke-opacity:0.451389"
       id="rect2"
       width="1.0583333"
       height="0.26458332"
       x="2.778125"
       y="7.8052082" /><rect
       style="fill:#000000;fill-opacity:1;stroke:none;stroke-width:0.358401;stroke-dasharray:none;stroke-opacity:0.451389"
       id="rect3"
       width="0.26458332"
       height="5.953125"
       x="4.1010418"
       y="1.5875" /><path
       sodipodi:type="star"
       style="fill:#000000;fill-opacity:1;stroke:none;stroke-width:0.799999;stroke-dasharray:none;stroke-opacity:0.451389"
       id="path3"
       inkscape:flatsided="true"
       sodipodi:sides="3"
       sodipodi:cx="1.1785113"
       sodipodi:cy="5.1854496"
       sodipodi:r1="2.7952404"
       sodipodi:r2="1.3976201"
       sodipodi:arg1="0.52359878"
       sodipodi:arg2="1.5707963"
       inkscape:rounded="0.01"
       inkscape:randomized="0"
       d="m 3.5992605,6.5830698 c -0.024208,0.041929 -4.817291,0.041929 -4.8414984,0 -0.024208,-0.041929 2.3723342,-4.1928606 2.4207492,-4.1928606 0.048415,0 2.4449566,4.150932 2.4207492,4.1928606 z"
       inkscape:transform-center-y="-0.10849879"
       transform="matrix(0.32786968,0,0,0.37580128,3.8469352,-0.36907701)" /><rect
       style="fill:#000000;fill-opacity:1;stroke:none;stroke-width:0.217588;stroke-dasharray:none;stroke-opacity:0.451389"
       id="rect2-8"
       width="1.0583333"
       height="0.26458332"
       x="4.6302085"
       y="7.8052082" /></g></svg>
