<?xml version="1.0" encoding="UTF-8" standalone="no"?>
<!DOCTYPE svg PUBLIC "-//W3C//DTD SVG 1.1//EN" "http://www.w3.org/Graphics/SVG/1.1/DTD/svg11.dtd">
<svg width="100%" height="100%" viewBox="0 0 33 33" version="1.1" xmlns="http://www.w3.org/2000/svg" xmlns:xlink="http://www.w3.org/1999/xlink" xml:space="preserve" xmlns:serif="http://www.serif.com/" style="fill-rule:evenodd;clip-rule:evenodd;stroke-linejoin:round;stroke-miterlimit:2;">
    <g transform="matrix(1,0,0,1,-1327,-118)">
        <g transform="matrix(1,0,0,1,0,-24.2585)">
            <g id="punktrand" transform="matrix(1,0,0,1,1327.82,142.37)">
                <rect x="0" y="0" width="32" height="32" style="fill:none;"/>
                <clipPath id="_clip1">
                    <rect x="0" y="0" width="32" height="32"/>
                </clipPath>
                <g clip-path="url(#_clip1)">
                    <g transform="matrix(1,0,0,5.41138,0,-57.4998)">
                        <rect x="15.5" y="11.61" width="1" height="2.334"/>
                    </g>
                    <g id="rect3" transform="matrix(15.1181,0,0,2.51969,-48,11)">
                        <path d="M4.167,7.541L4.101,7.541L4.101,1.587L4.366,1.587L4.366,7.541L4.299,7.541C4.299,7.322 4.27,7.143 4.233,7.143C4.197,7.143 4.167,7.322 4.167,7.541Z"/>
                    </g>
                    <g id="Botten">
                        <g id="Bottom" transform="matrix(3.77953,0,0,3.77953,7.1811e-07,0)">
                            <path d="M4.233,7.408C3.943,7.408 3.704,7.647 3.704,7.938C3.704,8.228 3.943,8.467 4.233,8.467C4.524,8.467 4.762,8.228 4.763,7.937C4.762,7.647 4.524,7.408 4.233,7.408ZM4.233,7.673C4.378,7.673 4.498,7.792 4.498,7.938C4.498,8.083 4.378,8.202 4.233,8.202C4.088,8.202 3.969,8.083 3.969,7.938C3.969,7.792 4.088,7.673 4.233,7.673Z" style="fill-rule:nonzero;"/>
                        </g>
                        <g id="Botten1" serif:id="Botten" transform="matrix(0.376562,0,0,1,13.9142,3.40157e-07)">
                            <rect x="9.522" y="29.5" width="13.278" height="1"/>
                        </g>
                        <g id="Botten2" serif:id="Botten" transform="matrix(0.376562,0,0,1,5.91424,3.40157e-07)">
                            <rect x="9.522" y="29.5" width="13.278" height="1"/>
                        </g>
                    </g>
                    <g id="Layer-1" serif:id="Layer 1">
                    </g>
                    <g transform="matrix(1.66533e-16,1.76387,1.76387,-1.66533e-16,16.6697,3.08448)">
                        <path d="M1.369,-1.784C0.585,-1.784 -0.048,-1.149 -0.049,-0.367C-0.049,0.416 0.587,1.051 1.369,1.05C2.151,1.05 2.786,0.415 2.785,-0.368C2.786,-1.15 2.152,-1.785 1.369,-1.784" style="fill-rule:nonzero;"/>
                    </g>
                    <g transform="matrix(1.66533e-16,1.76387,1.76387,-1.66533e-16,16.6235,8.61322)">
                        <path d="M1.368,-1.783C0.585,-1.783 -0.049,-1.149 -0.049,-0.366C-0.049,0.417 0.587,1.051 1.368,1.051C2.151,1.051 2.786,0.416 2.785,-0.367C2.786,-1.149 2.152,-1.784 1.368,-1.783" style="fill-rule:nonzero;"/>
                    </g>
                </g>
            </g>
        </g>
    </g>
</svg>
