<?xml version="1.0" encoding="UTF-8" standalone="no"?>
<!DOCTYPE svg PUBLIC "-//W3C//DTD SVG 1.1//EN" "http://www.w3.org/Graphics/SVG/1.1/DTD/svg11.dtd">
<svg width="100%" height="100%" viewBox="0 0 33 33" version="1.1" xmlns="http://www.w3.org/2000/svg" xmlns:xlink="http://www.w3.org/1999/xlink" xml:space="preserve" xmlns:serif="http://www.serif.com/" style="fill-rule:evenodd;clip-rule:evenodd;stroke-linejoin:round;stroke-miterlimit:2;">
    <g transform="matrix(1,0,0,1,-1222,-40)">
        <g transform="matrix(1,0,0,1,0,-24.2585)">
            <g id="radarreflektor" transform="matrix(1,0,0,1,1222.82,64.2941)">
                <rect x="0" y="0" width="32" height="32" style="fill:none;"/>
                <g id="Botten" transform="matrix(1,0,0,1,9.15873,0)">
                    <g id="Bottom" transform="matrix(3.77953,0,0,3.77953,-9.15873,-1.42109e-14)">
                        <path d="M4.233,7.408C3.943,7.408 3.704,7.647 3.704,7.938C3.704,8.228 3.943,8.467 4.233,8.467C4.524,8.467 4.762,8.228 4.763,7.937C4.762,7.647 4.524,7.408 4.233,7.408ZM4.233,7.673C4.378,7.673 4.498,7.792 4.498,7.938C4.498,8.083 4.378,8.202 4.233,8.202C4.088,8.202 3.969,8.083 3.969,7.938C3.969,7.792 4.088,7.673 4.233,7.673Z" style="fill-rule:nonzero;"/>
                    </g>
                    <g id="Botten1" serif:id="Botten" transform="matrix(0.376562,0,0,1,4.75551,3.40157e-07)">
                        <rect x="9.522" y="29.5" width="13.278" height="1"/>
                    </g>
                    <g id="Botten2" serif:id="Botten" transform="matrix(0.376562,0,0,1,-3.24449,3.40157e-07)">
                        <rect x="9.522" y="29.5" width="13.278" height="1"/>
                    </g>
                </g>
                <g id="rect3" transform="matrix(15.1181,0,0,2.51215,-48,11.0568)">
                    <path d="M4.167,7.541L4.101,7.541L4.101,1.587L4.366,1.587L4.366,7.541L4.299,7.541C4.299,7.322 4.27,7.143 4.233,7.143C4.197,7.143 4.167,7.322 4.167,7.541Z"/>
                </g>
                <g transform="matrix(2.11501,0,0,2.11501,8.78588,9.16515)">
                    <path d="M0.291,1.923C0.518,1.568 0.809,1.248 1.158,0.982L0.594,0.005L1.133,-0.306L1.684,0.647C2.137,0.407 2.619,0.271 3.102,0.231L3.102,-0.887L3.726,-0.887L3.726,0.231C4.207,0.272 4.678,0.407 5.108,0.627L5.67,-0.345L6.211,-0.033L5.638,0.957C5.984,1.215 6.289,1.538 6.535,1.919L7.51,1.356L7.821,1.895L6.349,2.746L6.345,2.74L6.295,2.768C6.241,2.634 6.164,2.516 6.09,2.387C5.237,0.91 3.347,0.403 1.869,1.256C1.247,1.616 0.807,2.151 0.545,2.78L0.477,2.742L0.473,2.749L-1,1.898L-0.687,1.357L0.291,1.923Z"/>
                </g>
            </g>
        </g>
    </g>
</svg>
