<?xml version="1.0" encoding="UTF-8" standalone="no"?>
<!-- Created with Inkscape (http://www.inkscape.org/) -->

<svg
   width="32"
   height="32"
   viewBox="0 0 8.4666667 8.4666667"
   version="1.1"
   id="svg1"
   xml:space="preserve"
   inkscape:version="1.3.2 (091e20e, 2023-11-25, custom)"
   sodipodi:docname="sektorfyr.svg"
   inkscape:export-filename="..\png\ostprick.png"
   inkscape:export-xdpi="96"
   inkscape:export-ydpi="96"
   xmlns:inkscape="http://www.inkscape.org/namespaces/inkscape"
   xmlns:sodipodi="http://sodipodi.sourceforge.net/DTD/sodipodi-0.dtd"
   xmlns="http://www.w3.org/2000/svg"
   xmlns:svg="http://www.w3.org/2000/svg"><sodipodi:namedview
     id="namedview1"
     pagecolor="#ffffff"
     bordercolor="#000000"
     borderopacity="0.25"
     inkscape:showpageshadow="2"
     inkscape:pageopacity="0.0"
     inkscape:pagecheckerboard="0"
     inkscape:deskcolor="#d1d1d1"
     inkscape:document-units="mm"
     inkscape:zoom="16"
     inkscape:cx="15.84375"
     inkscape:cy="24.96875"
     inkscape:window-width="1920"
     inkscape:window-height="1009"
     inkscape:window-x="-8"
     inkscape:window-y="-8"
     inkscape:window-maximized="1"
     inkscape:current-layer="layer1" /><defs
     id="defs1" /><g
     inkscape:label="Layer 1"
     inkscape:groupmode="layer"
     id="layer1"><path
       id="path2"
       style="fill:#000000;stroke-width:0.264583"
       inkscape:transform-center-y="-0.34535392"
       d="M 4.7294269 2.3252807 L 3.95478 3.8949103 L 2.2228398 4.1464728 L 3.4761334 5.3681327 L 3.1801331 7.0932942 L 4.7294269 6.2787288 L 6.2787206 7.0932942 L 5.9827204 5.3681327 L 7.2360139 4.1464728 L 5.5040737 3.8949103 L 4.7294269 2.3252807 z M 4.7294269 3.8485896 A 1.0604791 1.0604791 0 0 1 5.789906 4.9090688 A 1.0604791 1.0604791 0 0 1 4.7294269 5.9695479 A 1.0604791 1.0604791 0 0 1 3.6689477 4.9090688 A 1.0604791 1.0604791 0 0 1 4.7294269 3.8485896 z "
       transform="matrix(1.3722178,0,0,1.3722178,-2.2564704,-2.5029782)" /></g></svg>
