<?xml version="1.0" encoding="UTF-8" standalone="no"?>
<!-- Created with Inkscape (http://www.inkscape.org/) -->

<svg
   width="32"
   height="32"
   viewBox="0 0 8.4666667 8.4666667"
   version="1.1"
   id="svg1"
   xml:space="preserve"
   inkscape:version="1.3.2 (091e20e, 2023-11-25, custom)"
   sodipodi:docname="specialprick.svg"
   inkscape:export-filename="..\png\ostprick.png"
   inkscape:export-xdpi="96"
   inkscape:export-ydpi="96"
   xmlns:inkscape="http://www.inkscape.org/namespaces/inkscape"
   xmlns:sodipodi="http://sodipodi.sourceforge.net/DTD/sodipodi-0.dtd"
   xmlns="http://www.w3.org/2000/svg"
   xmlns:svg="http://www.w3.org/2000/svg"><sodipodi:namedview
     id="namedview1"
     pagecolor="#ffffff"
     bordercolor="#000000"
     borderopacity="0.25"
     inkscape:showpageshadow="2"
     inkscape:pageopacity="0.0"
     inkscape:pagecheckerboard="0"
     inkscape:deskcolor="#d1d1d1"
     inkscape:document-units="mm"
     inkscape:zoom="22.627417"
     inkscape:cx="15.313281"
     inkscape:cy="15.136505"
     inkscape:window-width="1920"
     inkscape:window-height="1129"
     inkscape:window-x="-8"
     inkscape:window-y="-8"
     inkscape:window-maximized="1"
     inkscape:current-layer="layer1" /><defs
     id="defs1" /><g
     inkscape:label="Layer 1"
     inkscape:groupmode="layer"
     id="layer1"><path
       id="path2"
       style="fill:#000000;fill-opacity:1;stroke:none;stroke-width:0.359244;stroke-dasharray:none;stroke-opacity:1"
       d="M 4.2333333 7.4083333 A 0.52916664 0.52916688 0 0 0 3.7041667 7.9375 A 0.52916664 0.52916688 0 0 0 4.2333333 8.4666667 A 0.52916664 0.52916688 0 0 0 4.7625 7.9375 A 0.52916664 0.52916688 0 0 0 4.2333333 7.4083333 z M 4.2333333 7.6729167 A 0.26458332 0.26458332 0 0 1 4.4979167 7.9375 A 0.26458332 0.26458332 0 0 1 4.2333333 8.2020833 A 0.26458332 0.26458332 0 0 1 3.96875 7.9375 A 0.26458332 0.26458332 0 0 1 4.2333333 7.6729167 z " /><rect
       style="fill:#000000;fill-opacity:1;stroke:none;stroke-width:0.217588;stroke-dasharray:none;stroke-opacity:0.451389"
       id="rect2"
       width="1.0583333"
       height="0.26458332"
       x="2.778125"
       y="7.8052082" /><rect
       style="fill:#000000;fill-opacity:1;stroke:none;stroke-width:0.366279;stroke-dasharray:none;stroke-opacity:0.451389"
       id="rect3"
       width="0.26458332"
       height="6.2177081"
       x="4.1010418"
       y="1.3229166" /><rect
       style="fill:#000000;fill-opacity:1;stroke:none;stroke-width:0.217588;stroke-dasharray:none;stroke-opacity:0.451389"
       id="rect2-8"
       width="1.0583333"
       height="0.26458332"
       x="4.6302085"
       y="7.8052082" /><g
       id="g5"
       transform="translate(3.7502504,-1.3476795)"><rect
         style="fill:#000000;fill-opacity:1;stroke:none;stroke-width:0.249451;stroke-dasharray:none;stroke-opacity:1"
         id="rect5"
         width="0.26458332"
         height="2.1166666"
         x="1.4485602"
         y="-3.3223677"
         transform="rotate(135)" /><rect
         style="fill:#000000;fill-opacity:1;stroke:none;stroke-width:0.249451;stroke-dasharray:none;stroke-opacity:1"
         id="rect5-8"
         width="0.26458332"
         height="2.1166666"
         x="2.1317427"
         y="0.52251863"
         transform="rotate(45)" /></g></g></svg>
