<?xml version="1.0" encoding="UTF-8" standalone="no"?>
<!-- Created with Inkscape (http://www.inkscape.org/) -->

<svg
   width="32"
   height="32"
   viewBox="0 0 8.4666667 8.4666667"
   version="1.1"
   id="svg1"
   xml:space="preserve"
   inkscape:version="1.3.2 (091e20e, 2023-11-25, custom)"
   sodipodi:docname="styrbordsprick_color.svg"
   inkscape:export-filename="..\png\ostprick.png"
   inkscape:export-xdpi="96"
   inkscape:export-ydpi="96"
   xmlns:inkscape="http://www.inkscape.org/namespaces/inkscape"
   xmlns:sodipodi="http://sodipodi.sourceforge.net/DTD/sodipodi-0.dtd"
   xmlns="http://www.w3.org/2000/svg"
   xmlns:svg="http://www.w3.org/2000/svg"><sodipodi:namedview
     id="namedview1"
     pagecolor="#ffffff"
     bordercolor="#000000"
     borderopacity="0.25"
     inkscape:showpageshadow="2"
     inkscape:pageopacity="0.0"
     inkscape:pagecheckerboard="0"
     inkscape:deskcolor="#d1d1d1"
     inkscape:document-units="mm"
     inkscape:zoom="16"
     inkscape:cx="17.59375"
     inkscape:cy="18.15625"
     inkscape:window-width="1920"
     inkscape:window-height="1129"
     inkscape:window-x="-8"
     inkscape:window-y="-8"
     inkscape:window-maximized="1"
     inkscape:current-layer="layer1" /><defs
     id="defs1" /><g
     inkscape:label="Layer 1"
     inkscape:groupmode="layer"
     id="layer1"><path
       id="path2"
       style="fill:#00ff04;fill-opacity:1;stroke:#000000;stroke-width:0.13229167;stroke-dasharray:none;stroke-opacity:1"
       d="m 4.2333333,0.26458334 c -0.015874,0 -0.8016869,1.55985766 -0.79375,1.57561446 0.00352,0.00698 0.3161511,0.011089 0.6614584,0.011886 V 7.16132 A 0.52916664,0.52916688 0 0 0 3.7217367,7.540625 H 2.778125 V 7.8052084 H 3.7217367 A 0.52916664,0.52916688 0 0 0 4.2333333,8.2020834 0.52916664,0.52916688 0 0 0 4.74493,7.8052084 H 5.6885417 V 7.540625 H 4.74493 A 0.52916664,0.52916688 0 0 0 4.365625,7.16132 V 1.8520834 c 0.3453072,-7.963e-4 0.6579426,-0.00491 0.6614583,-0.011886 0.00794,-0.015757 -0.7778762,-1.57561446 -0.79375,-1.57561446 z m 0,7.14375006 A 0.26458332,0.26458332 0 0 1 4.4979167,7.6729167 0.26458332,0.26458332 0 0 1 4.2333333,7.9375 0.26458332,0.26458332 0 0 1 3.96875,7.6729167 0.26458332,0.26458332 0 0 1 4.2333333,7.4083334 Z" /></g></svg>
