<?xml version="1.0" encoding="UTF-8" standalone="no"?>
<!DOCTYPE svg PUBLIC "-//W3C//DTD SVG 1.1//EN" "http://www.w3.org/Graphics/SVG/1.1/DTD/svg11.dtd">
<svg width="100%" height="100%" viewBox="0 0 32 32" version="1.1" xmlns="http://www.w3.org/2000/svg" xmlns:xlink="http://www.w3.org/1999/xlink" xml:space="preserve" xmlns:serif="http://www.serif.com/" style="fill-rule:evenodd;clip-rule:evenodd;stroke-linejoin:round;stroke-miterlimit:2;">
    <g transform="matrix(1,0,0,1,-107.852,-34.6292)">
        <g id="styrbordsrand_color" transform="matrix(1,0,0,1,107.852,34.6292)">
            <rect x="0" y="0" width="32" height="32" style="fill:none;"/>
            <clipPath id="_clip1">
                <rect x="0" y="0" width="32" height="32"/>
            </clipPath>
            <g clip-path="url(#_clip1)">
                <g id="Boj">
                    <g id="Bottom" transform="matrix(3.77953,0,0,3.77953,7.1811e-07,0)">
                        <path d="M4.233,7.408C3.943,7.408 3.704,7.647 3.704,7.938C3.704,8.228 3.943,8.467 4.233,8.467C4.524,8.467 4.762,8.228 4.763,7.937C4.762,7.647 4.524,7.408 4.233,7.408ZM4.233,7.673C4.378,7.673 4.498,7.792 4.498,7.938C4.498,8.083 4.378,8.202 4.233,8.202C4.088,8.202 3.969,8.083 3.969,7.938C3.969,7.792 4.088,7.673 4.233,7.673Z" style="fill-rule:nonzero;"/>
                    </g>
                    <g id="Botten" transform="matrix(0.376562,0,0,1,13.9142,3.40157e-07)">
                        <rect x="9.522" y="29.5" width="13.278" height="1"/>
                    </g>
                    <g id="Botten1" serif:id="Botten" transform="matrix(0.376562,0,0,1,5.91424,3.40157e-07)">
                        <rect x="9.522" y="29.5" width="13.278" height="1"/>
                    </g>
                </g>
                <g id="Layer-1" serif:id="Layer 1" transform="matrix(3.77953,0,0,3.77953,0,0)">
                    <g id="rect3" transform="matrix(4,0,0,0.664672,-12.7,2.92546)">
                        <path d="M4.167,7.541L4.101,7.541L4.101,1.587L4.366,1.587L4.366,7.541L4.299,7.541C4.299,7.322 4.27,7.143 4.233,7.143C4.197,7.143 4.167,7.322 4.167,7.541Z" style="fill:rgb(30,129,69);"/>
                    </g>
                    <path id="path2" d="M4.233,7.408C3.943,7.408 3.704,7.647 3.704,7.938C3.704,8.228 3.943,8.467 4.233,8.467C4.524,8.467 4.762,8.228 4.763,7.937C4.762,7.647 4.524,7.408 4.233,7.408ZM4.233,7.673C4.378,7.673 4.498,7.792 4.498,7.938C4.498,8.083 4.378,8.202 4.233,8.202C4.088,8.202 3.969,8.083 3.969,7.938C3.969,7.792 4.088,7.673 4.233,7.673Z" style="fill-rule:nonzero;"/>
                    <rect id="rect2" x="2.778" y="7.805" width="1.058" height="0.265"/>
                    <g transform="matrix(0.264583,0,0,0.453354,0,-2.34098)">
                        <rect x="15.5" y="11.61" width="1" height="2.334"/>
                    </g>
                    <g transform="matrix(0.223751,0,0,0.235719,1.69123,0.544684)">
                        <path d="M11.361,3.546L15.5,10.281L7.223,10.281L11.361,3.546Z"/>
                    </g>
                    <rect id="rect2-8" x="4.63" y="7.805" width="1.058" height="0.265"/>
                </g>
            </g>
        </g>
    </g>
</svg>
