<?xml version="1.0" encoding="UTF-8" standalone="no"?>
<!-- Created with Inkscape (http://www.inkscape.org/) -->

<svg
   width="32"
   height="32"
   viewBox="0 0 8.4666667 8.4666667"
   version="1.1"
   id="svg1"
   xml:space="preserve"
   inkscape:version="1.3.2 (091e20e, 2023-11-25, custom)"
   sodipodi:docname="styrbordsboj_color.svg"
   inkscape:export-filename="..\png\ostprick.png"
   inkscape:export-xdpi="96"
   inkscape:export-ydpi="96"
   xmlns:inkscape="http://www.inkscape.org/namespaces/inkscape"
   xmlns:sodipodi="http://sodipodi.sourceforge.net/DTD/sodipodi-0.dtd"
   xmlns="http://www.w3.org/2000/svg"
   xmlns:svg="http://www.w3.org/2000/svg"><sodipodi:namedview
     id="namedview1"
     pagecolor="#ffffff"
     bordercolor="#000000"
     borderopacity="0.25"
     inkscape:showpageshadow="2"
     inkscape:pageopacity="0.0"
     inkscape:pagecheckerboard="0"
     inkscape:deskcolor="#d1d1d1"
     inkscape:document-units="mm"
     inkscape:zoom="22.627417"
     inkscape:cx="15.313281"
     inkscape:cy="15.269087"
     inkscape:window-width="1920"
     inkscape:window-height="1129"
     inkscape:window-x="-8"
     inkscape:window-y="-8"
     inkscape:window-maximized="1"
     inkscape:current-layer="layer1" /><defs
     id="defs1" /><g
     inkscape:label="Layer 1"
     inkscape:groupmode="layer"
     id="layer1"><path
       id="path2"
       style="fill:#00ff00;fill-opacity:1;stroke:#000000;stroke-width:0.05291667;stroke-dasharray:none;stroke-opacity:1"
       d="M 4.2333333 0.52916667 C 4.2174595 0.52916667 3.4316464 2.0890243 3.4395833 2.1047811 C 3.4430991 2.1117607 3.7557344 2.1158704 4.1010417 2.1166667 L 4.1010417 3.96875 L 3.7041667 3.96875 L 3.7041667 4.7625 L 3.175 7.8052083 L 2.778125 7.8052083 L 2.778125 8.0697917 L 3.7217367 8.0697917 A 0.52916664 0.52916688 0 0 0 4.2333333 8.4666667 A 0.52916664 0.52916688 0 0 0 4.74493 8.0697917 L 5.6885417 8.0697917 L 5.6885417 7.8052083 L 5.2916667 7.8052083 L 4.7625 4.7625 L 4.7625 3.96875 L 4.365625 3.96875 L 4.365625 2.1166667 C 4.7109322 2.1158704 5.0235676 2.1117607 5.0270833 2.1047811 C 5.0350202 2.0890243 4.2492071 0.52916667 4.2333333 0.52916667 z M 4.2333333 7.6729167 A 0.26458332 0.26458332 0 0 1 4.2777751 7.6775675 C 4.2826716 7.6784082 4.2874245 7.6790415 4.2922445 7.6801514 A 0.26458332 0.26458332 0 0 1 4.37441 7.7142578 C 4.3777879 7.7163936 4.3809486 7.7186878 4.3842285 7.7209757 A 0.26458332 0.26458332 0 0 1 4.420402 7.7504313 C 4.4209126 7.7509426 4.4214457 7.7514659 4.4219523 7.7519816 A 0.26458332 0.26458332 0 0 1 4.4472738 7.7835042 C 4.4506788 7.7882363 4.4539838 7.7929871 4.4570923 7.7979736 A 0.26458332 0.26458332 0 0 1 4.4979167 7.9375 A 0.26458332 0.26458332 0 0 1 4.2333333 8.2020833 A 0.26458332 0.26458332 0 0 1 3.96875 7.9375 A 0.26458332 0.26458332 0 0 1 4.0075073 7.801591 C 4.0120189 7.7940727 4.0168073 7.7868415 4.0219767 7.7798869 A 0.26458332 0.26458332 0 0 1 4.0348958 7.764384 C 4.0414784 7.7568085 4.0482229 7.7494112 4.0555664 7.7426799 A 0.26458332 0.26458332 0 0 1 4.0777873 7.7245931 C 4.0836744 7.7202736 4.089658 7.7160047 4.095874 7.7121908 A 0.26458332 0.26458332 0 0 1 4.1201619 7.6997884 C 4.1276267 7.6962116 4.1351116 7.6928384 4.1428996 7.6899699 A 0.26458332 0.26458332 0 0 1 4.1744222 7.6801514 C 4.1792315 7.6790362 4.1840056 7.6784146 4.1888916 7.6775675 A 0.26458332 0.26458332 0 0 1 4.2333333 7.6729167 z " /></g></svg>
